<?xml version="1.0" encoding="utf-8"?>
<!-- Generator: Adobe Illustrator 23.0.0, SVG Export Plug-In . SVG Version: 6.00 Build 0)  -->
<svg version="1.1" id="Capa_1" xmlns="http://www.w3.org/2000/svg" xmlns:xlink="http://www.w3.org/1999/xlink" x="0px" y="0px"
	 viewBox="0 0 277.5 277.5" style="enable-background:new 0 0 277.5 277.5;" xml:space="preserve">
<style type="text/css">
	.st0{fill:#F6BE00;}
</style>
<g>
	<path class="st0" d="M245.2,62.2c-2.2-1.4-4.9-1.6-7.2-0.5l-26.6,12.5c4.2-7.3,6.7-15.7,6.7-24.7C218,22.2,195.8,0,168.5,0
		c-17.7,0-33.2,9.3-42,23.3C117.8,9.3,102.3,0,84.6,0C57.3,0,35.1,22.2,35.1,49.5c0,15.4,7.1,29.2,18.2,38.3
		c-0.9,1.2-1.4,2.7-1.4,4.3v66.6c0,4.1,3.4,7.5,7.5,7.5h16.3l9.8,21.8c1.2,2.7,3.9,4.4,6.8,4.4h14.1L51.3,245
		c-3,2.9-3.1,7.6-0.2,10.6c1.5,1.5,3.4,2.3,5.4,2.3c1.9,0,3.7-0.7,5.2-2.1l55.9-53.4V270c0,4.1,3.4,7.5,7.5,7.5
		c4.1,0,7.5-3.4,7.5-7.5v-68.1l56.1,51.2c1.4,1.3,3.3,2,5.1,2c2,0,4.1-0.8,5.5-2.4c2.8-3.1,2.6-7.8-0.5-10.6l-54.4-49.6h13.5
		c3,0,5.6-1.7,6.8-4.4l9.8-21.8h14.7L238,189c1,0.5,2.1,0.7,3.2,0.7c1.4,0,2.8-0.4,4-1.2c2.2-1.4,3.5-3.8,3.5-6.3V68.6
		C248.7,66,247.4,63.6,245.2,62.2z M126.6,75.6c2,3.3,4.4,6.3,7.2,9h-14.3C122.1,81.9,124.5,78.9,126.6,75.6z M168.5,15
		c19,0,34.5,15.5,34.5,34.5S187.6,84,168.5,84c-19,0-34.5-15.5-34.5-34.5S149.5,15,168.5,15z M84.6,15c19,0,34.5,15.5,34.5,34.5
		S103.6,84,84.6,84S50.1,68.5,50.1,49.5S65.5,15,84.6,15z M66.9,99.6h116.5v51.6h-13.7H80.5H66.9V99.6z M153.1,177.4H97.2l-5-11.2
		h66L153.1,177.4z M233.7,170.4l-35.3-16.5v-57l35.3-16.5L233.7,170.4L233.7,170.4z"/>
	<path class="st0" d="M36.4,101.3c-4.1,0-7.5,3.4-7.5,7.5v33.3c0,4.1,3.4,7.5,7.5,7.5s7.5-3.4,7.5-7.5v-33.3
		C43.9,104.6,40.5,101.3,36.4,101.3z"/>
</g>
</svg>
