<?xml version="1.0" encoding="utf-8"?>
<!-- Generator: Adobe Illustrator 23.0.0, SVG Export Plug-In . SVG Version: 6.00 Build 0)  -->
<svg version="1.1" id="Layer_1" xmlns="http://www.w3.org/2000/svg" xmlns:xlink="http://www.w3.org/1999/xlink" x="0px" y="0px"
	 viewBox="0 0 512 512" style="enable-background:new 0 0 512 512;" xml:space="preserve">
<style type="text/css">
	.st0{fill:#F6BE00;}
</style>
<g>
	<g>
		<g>
			<path class="st0" d="M478.9,5.3H35.1C16.4,5.3,0,21.7,0,40.4v327.8C0,386.3,15.1,400,35.1,400h242.3v96c0,5.9,4.8,10.7,10.7,10.7
				h117.3c5.9,0,10.7-4.8,10.7-10.7v-96h62.9c19.1,0,33.1-13.4,33.1-31.8V40.4C512,21.1,497.2,5.3,478.9,5.3z M394.7,485.3h-96V336
				h96V485.3z M490.7,368.2c0,9.4-8.2,10.4-11.7,10.4H416v-53.3c0-5.9-4.8-10.7-10.7-10.7H288c-5.9,0-10.7,4.8-10.7,10.7v53.3H35.1
				c-6.8,0-13.7-3.6-13.7-10.4V40.4c0-7.1,6.7-13.8,13.7-13.8h443.9c7.2,0,11.7,7.1,11.7,13.8V368.2z"/>
			<rect x="320" y="368" class="st0" width="21.3" height="21.3"/>
			<rect x="352" y="368" class="st0" width="21.3" height="21.3"/>
			<rect x="320" y="400" class="st0" width="21.3" height="21.3"/>
			<rect x="352" y="400" class="st0" width="21.3" height="21.3"/>
			<path class="st0" d="M277.2,261.3c-23.5,0-42.6,19.1-42.6,42.6c0,5.9,4.8,10.7,10.7,10.7s10.7-4.8,10.7-10.7
				c0-11.7,9.5-21.2,21.3-21.3c5.9,0,10.7-4.8,10.7-10.7C287.8,266.1,283.1,261.3,277.2,261.3z"/>
			<path class="st0" d="M277.2,218.7c-47,0.1-85.1,38.2-85.2,85.2c0,5.9,4.8,10.7,10.7,10.7s10.7-4.8,10.7-10.7
				c0-35.2,28.6-63.8,63.8-63.8c5.9,0,10.7-4.8,10.7-10.7S283.1,218.7,277.2,218.7z"/>
			<path class="st0" d="M277.2,176.1L277.2,176.1c-70.5,0.1-127.7,57.2-127.7,127.8c0,5.9,4.8,10.7,10.7,10.7s10.7-4.8,10.7-10.7
				c0.1-58.8,47.7-106.4,106.4-106.4c5.9,0,10.7-4.8,10.7-10.7C287.8,180.9,283.1,176.1,277.2,176.1z"/>
		</g>
	</g>
</g>
</svg>
