<?xml version="1.0" encoding="utf-8"?>
<!-- Generator: Adobe Illustrator 23.0.0, SVG Export Plug-In . SVG Version: 6.00 Build 0)  -->
<svg version="1.1" id="Layer_1" xmlns="http://www.w3.org/2000/svg" xmlns:xlink="http://www.w3.org/1999/xlink" x="0px" y="0px"
	 viewBox="0 0 503.6 503.6" style="enable-background:new 0 0 503.6 503.6;" xml:space="preserve">
<style type="text/css">
	.st0{fill:#F6BE00;}
</style>
<g transform="translate(1 1)">
	<g>
		<g>
			<path class="st0" d="M469,116.4H266.2l59.3-95.7c2.5-4.2,1.7-9.2-2.5-11.8s-9.2-1.7-11.8,2.5l-60.6,97.6L182,10.6
				c-2.5-3.4-7.6-4.2-11.8-1.7c-3.4,2.5-4.2,7.6-1.7,11.8l66.8,95.7H32.6C14.1,116.4-1,131.5-1,150v285.4
				c0,18.5,15.1,33.6,33.6,33.6H41v16.8c0,5,3.4,8.4,8.4,8.4s8.4-3.4,8.4-8.4v-16.8h386.1v16.8c0,5,3.4,8.4,8.4,8.4s8.4-3.4,8.4-8.4
				v-16.8h8.4c18.5,0,33.6-15.1,33.6-33.6V150C502.6,131.5,487.5,116.4,469,116.4z M485.8,435.4c0,9.2-7.6,16.8-16.8,16.8H32.6
				c-9.2,0-16.8-7.6-16.8-16.8V150c0-9.2,7.6-16.8,16.8-16.8H469c9.2,0,16.8,7.6,16.8,16.8V435.4z"/>
			<path class="st0" d="M318,150h-235c-27.7,0-50.4,22.7-50.4,50.4V385c0,27.7,22.7,50.4,50.4,50.4h235c27.7,0,50.4-22.7,50.4-50.4
				V200.3C368.3,172.6,345.6,150,318,150z M351.5,385c0,18.5-15.1,33.6-33.6,33.6h-235c-18.5,0-33.6-15.1-33.6-33.6V200.3
				c0-18.5,15.1-33.6,33.6-33.6h235c18.5,0,33.6,15.1,33.6,33.6L351.5,385L351.5,385z"/>
			<path class="st0" d="M460.6,191.9h-67.1c-5,0-8.4,3.4-8.4,8.4s3.4,8.4,8.4,8.4h67.1c5,0,8.4-3.4,8.4-8.4S465.7,191.9,460.6,191.9
				z"/>
			<path class="st0" d="M460.6,225.5h-67.1c-5,0-8.4,3.4-8.4,8.4s3.4,8.4,8.4,8.4h67.1c5,0,8.4-3.4,8.4-8.4S465.7,225.5,460.6,225.5
				z"/>
			<path class="st0" d="M460.6,259.1h-67.1c-5,0-8.4,3.4-8.4,8.4s3.4,8.4,8.4,8.4h67.1c5,0,8.4-3.4,8.4-8.4S465.7,259.1,460.6,259.1
				z"/>
			<path class="st0" d="M460.6,292.7h-67.1c-5,0-8.4,3.4-8.4,8.4v67.1c0,5,3.4,8.4,8.4,8.4h67.1c5,0,8.4-3.4,8.4-8.4v-67.1
				C469,296,465.7,292.7,460.6,292.7z M452.2,359.8h-50.4v-50.4h50.4V359.8z"/>
			<path class="st0" d="M102.2,186.1l-33.6,33.6c-3.4,3.4-3.4,8.4,0,11.8c1.7,1.7,3.4,2.5,5.9,2.5s4.2-0.8,5.9-2.5l33.6-33.6
				c3.4-3.4,3.4-8.4,0-11.8C110.6,182.7,105.6,182.7,102.2,186.1z"/>
			<path class="st0" d="M77.1,253.2l-8.4,8.4c-3.4,3.4-3.4,8.4,0,11.8c1.7,1.7,3.4,2.5,5.9,2.5s4.2-0.8,5.9-2.5l8.4-8.4
				c3.4-3.4,3.4-8.4,0-11.8C85.5,249.9,80.4,249.9,77.1,253.2z"/>
			<path class="st0" d="M152.6,177.7l-25.2,25.2c-3.4,3.4-3.4,8.4,0,11.8c1.7,1.7,3.4,2.5,5.9,2.5s4.2-0.8,5.9-2.5l25.2-25.2
				c3.4-3.4,3.4-8.4,0-11.8S156,174.3,152.6,177.7z"/>
			<path class="st0" d="M108.1,225.5c-5,0-8.4,3.4-8.4,8.4s3.4,8.4,8.4,8.4s8.4-3.4,8.4-8.4S113.2,225.5,108.1,225.5z"/>
		</g>
	</g>
</g>
</svg>
