<?xml version="1.0" encoding="utf-8"?>
<!-- Generator: Adobe Illustrator 23.0.0, SVG Export Plug-In . SVG Version: 6.00 Build 0)  -->
<svg version="1.1" id="Layer_1" xmlns="http://www.w3.org/2000/svg" xmlns:xlink="http://www.w3.org/1999/xlink" x="0px" y="0px"
	 viewBox="0 0 122.9 95.8" style="enable-background:new 0 0 122.9 95.8;" xml:space="preserve">
<style type="text/css">
	.st0{fill:#F6BE00;}
</style>
<g>
	<path class="st0" d="M12.1,0h20.7h29.4H91h19.7c3.3,0,6.4,1.4,8.6,3.6c2.2,2.2,3.6,5.2,3.6,8.6v7.1v57.3v7.1c0,3.3-1.4,6.4-3.6,8.6
		c-2.2,2.2-5.2,3.6-8.6,3.6H91.5c-0.2,0-0.3,0-0.5,0c-0.2,0-0.3,0-0.5,0H62.7c-0.2,0-0.3,0-0.5,0c-0.2,0-0.3,0-0.5,0H33.3
		c-0.2,0-0.3,0-0.5,0c-0.2,0-0.3,0-0.5,0H12.1c-3.3,0-6.4-1.4-8.6-3.6S0,86.9,0,83.6v-7.1V19.3v-7.1c0-3.3,1.4-6.4,3.6-8.6
		C5.8,1.4,8.8,0,12.1,0L12.1,0z M55.2,31.2l20.5,14.3c0.3,0.2,0.6,0.5,0.8,0.8c0.9,1.3,0.6,3.1-0.7,4.1L55.4,64.6
		c-0.5,0.4-1.2,0.7-1.8,0.7c-1.6,0-2.9-1.3-2.9-2.9V33.6h0c0-0.6,0.2-1.2,0.5-1.7C52,30.6,53.9,30.3,55.2,31.2L55.2,31.2z
		 M93.9,79.4v10.5h16.8c1.7,0,3.3-0.7,4.4-1.8s1.8-2.7,1.8-4.4v-4.2H93.9L93.9,79.4z M88.1,89.9V79.4H65.2v10.5H88.1L88.1,89.9z
		 M59.3,89.9V79.4H35.7v10.5H59.3L59.3,89.9z M29.9,89.9V79.4h-24v4.2c0,1.7,0.7,3.3,1.8,4.4s2.7,1.8,4.4,1.8H29.9L29.9,89.9z
		 M5.8,73.6h26.9h29.4H91h26V22.2H91H62.2H32.8H5.8V73.6L5.8,73.6z M88.1,16.4V5.8H65.2v10.5L88.1,16.4L88.1,16.4z M93.9,5.8v10.5
		H117v-4.2c0-1.7-0.7-3.3-1.8-4.4s-2.7-1.8-4.4-1.8L93.9,5.8L93.9,5.8z M59.3,16.4V5.8H35.7v10.5L59.3,16.4L59.3,16.4z M29.9,16.4
		V5.8H12.1c-1.7,0-3.3,0.7-4.4,1.8s-1.8,2.7-1.8,4.4v4.2L29.9,16.4L29.9,16.4z"/>
</g>
</svg>
